<svg width="180" height="182" viewBox="0 0 180 182" fill="none" xmlns="http://www.w3.org/2000/svg">
<path fill-rule="evenodd" clip-rule="evenodd" d="M92.7819 1.81054L90.4183 0.445892L88.0546 1.81054L14.3638 44.356L12.0001 45.7206V48.4499V133.541V136.27L14.3638 137.635L88.0546 180.18L90.4183 181.545L92.7819 180.18L166.473 137.635L168.836 136.27V133.541V48.4499V45.7206L166.473 44.356L92.7819 1.81054ZM47.3101 71.5655L21.4547 56.6378V130.812L85.691 167.898V138.036C87.2456 138.19 88.8223 138.269 90.4175 138.269C92.0132 138.269 93.5905 138.19 95.1456 138.036V167.898L159.382 130.812V56.6378L133.525 71.5662C132.218 68.6713 130.628 65.9317 128.791 63.3825L154.655 48.4499L90.4183 11.3631L26.1819 48.4499L52.0447 63.3818C50.207 65.931 48.617 68.6706 47.3101 71.5655Z" fill="white"/>
<circle cx="90.4175" cy="90.9965" r="42.5455" stroke="white" stroke-width="9.45455"/>
<path d="M110.055 70.941C98.9786 59.8643 81.0197 59.8643 69.943 70.941C68.1113 72.7728 66.5824 74.7927 65.3565 76.9386C65.1925 77.2258 65.0338 77.5152 64.8806 77.8068C59.2557 88.5103 60.9432 102.053 69.943 111.053C75.3696 116.48 82.4479 119.248 89.5596 119.357C89.7061 119.36 89.8526 119.361 89.9991 119.361C97.258 119.361 104.517 116.592 110.055 111.053C119.361 101.748 120.849 87.5852 114.519 76.7264C113.314 74.6595 111.826 72.7122 110.055 70.941Z" fill="white"/>
</svg>
